<svg width="79" height="74" viewBox="0 0 79 74" fill="none" xmlns="http://www.w3.org/2000/svg">
<path fill-rule="evenodd" clip-rule="evenodd" d="M39.6278 36.25C34.9682 36.25 31.1909 32.5563 31.1909 28C31.1909 23.4436 34.9682 19.75 39.6278 19.75C44.2874 19.75 48.0647 23.4436 48.0647 28C48.0647 32.5563 44.2874 36.25 39.6278 36.25ZM37.5281 27.8498C39.0813 27.8498 40.3404 26.6186 40.3404 25.0998C40.3404 23.5811 39.0813 22.3499 37.5281 22.3499C35.9749 22.3499 34.7158 23.5811 34.7158 25.0998C34.7158 26.6186 35.9749 27.8498 37.5281 27.8498Z" fill="#7D86A9"/>
<path fill-rule="evenodd" clip-rule="evenodd" d="M39.7369 6.54866e-06C39.7664 -4.73706e-05 39.7959 0.000231661 39.8254 0.000844094L40.4768 0.0143598C40.516 0.0151745 40.5553 0.0165788 40.5945 0.0185723L41.533 0.0662753C41.5713 0.0682252 41.6096 0.0707382 41.6479 0.0738139L42.2961 0.12589C42.3255 0.128254 42.3549 0.13095 42.3842 0.133978L43.0203 0.19957C43.0515 0.202793 43.0827 0.206392 43.1139 0.210365L43.7499 0.29146C43.7799 0.295285 43.8098 0.299456 43.8397 0.303973L44.4842 0.401367C44.5229 0.407212 44.5615 0.413636 44.6 0.420637L45.5243 0.58879C45.5623 0.59571 45.6003 0.603193 45.6381 0.611236L46.2753 0.746792C46.3046 0.753021 46.3338 0.759585 46.3629 0.766483L46.9973 0.916748C47.0349 0.92566 47.0724 0.935128 47.1098 0.94515L48.0175 1.18883C48.0542 1.19868 48.0907 1.20907 48.1271 1.21998L48.7538 1.40801C48.7842 1.41714 48.8145 1.42664 48.8447 1.43651L49.4674 1.64004C49.5038 1.65193 49.54 1.66436 49.576 1.67731L50.4631 1.99653C50.4995 2.00963 50.5357 2.02326 50.5717 2.03744L51.1822 2.27794C51.2107 2.28914 51.239 2.30068 51.2671 2.31255L51.8736 2.56816C51.91 2.58349 51.9461 2.59938 51.982 2.61581L52.8433 3.01015C52.8787 3.02639 52.9139 3.04315 52.9488 3.06044L53.54 3.35302C53.568 3.36688 53.5958 3.38107 53.6234 3.3956L54.2097 3.70368C54.2448 3.72209 54.2795 3.74103 54.3139 3.76049L55.1436 4.22957C55.177 4.24843 55.21 4.26778 55.2428 4.28761L55.8121 4.63226C55.8401 4.64922 55.8679 4.66652 55.8954 4.68418L56.4574 5.04433C56.4905 5.06554 56.5233 5.08724 56.5557 5.10944L57.3583 5.65922C57.3972 5.68586 57.4356 5.71321 57.4734 5.74125L58.2683 6.32998C58.3071 6.35869 58.3453 6.38812 58.3829 6.41825L59.1507 7.03322C59.1818 7.05806 59.2124 7.08336 59.2425 7.10913L59.7577 7.5488C59.7816 7.56926 59.8054 7.59001 59.8288 7.61105L60.3338 8.06423C60.3636 8.09097 60.393 8.11817 60.4219 8.14582L61.1412 8.83354C61.1761 8.86687 61.2103 8.90086 61.2438 8.93546L61.9534 9.66771C61.9896 9.70504 62.025 9.7431 62.0596 9.78186L62.842 10.6588C62.8748 10.6956 62.9069 10.733 62.9382 10.771L63.3611 11.2843C63.3894 11.3185 63.417 11.3532 63.4439 11.3884L63.9036 11.9883C63.9281 12.0201 63.952 12.0524 63.9754 12.085L64.4286 12.7175C64.4503 12.7477 64.4715 12.7782 64.4922 12.809L64.9365 13.4697C64.9544 13.4962 64.9719 13.523 64.9891 13.55L65.4262 14.2373C65.4421 14.2624 65.4578 14.2877 65.4731 14.3131L65.9021 15.0247C65.9146 15.0454 65.9269 15.0662 65.9389 15.0872L66.3138 15.7371C66.3253 15.7572 66.3367 15.7774 66.3479 15.7977L66.7684 16.5593C66.7791 16.5786 66.7896 16.5981 66.7999 16.6176L67.2168 17.4055C67.2224 17.4161 67.228 17.4268 67.2335 17.4375C67.2373 17.4448 67.2411 17.4522 67.2448 17.4595L67.6637 18.2836C67.6728 18.3015 67.6817 18.3194 67.6905 18.3375C67.6939 18.3443 67.6972 18.3511 67.7005 18.358L68.5075 20.0375C68.5217 20.067 68.5354 20.0966 68.5488 20.1264L69.3417 21.8946C69.3507 21.9148 69.3596 21.9351 69.3683 21.9554L69.7666 22.888C69.7729 22.9028 69.7791 22.9177 69.7852 22.9325L70.3655 24.3418C70.3739 24.3624 70.3822 24.3831 70.3904 24.4038L71.142 26.3274C71.1481 26.3431 71.1541 26.3588 71.16 26.3745L71.5357 27.3759C71.5406 27.3892 71.5456 27.4025 71.5504 27.4158L72.0958 28.9225C72.1019 28.9393 72.1079 28.9561 72.1137 28.973L72.8205 31.0175C72.8278 31.0387 72.835 31.06 72.8419 31.0814L73.6862 33.676C73.6927 33.696 73.699 33.716 73.7052 33.7361L74.3521 35.8462C74.3581 35.8659 74.364 35.8857 74.3697 35.9055L75.1303 38.5435C75.134 38.5565 75.1377 38.5695 75.1413 38.5826C75.1439 38.5919 75.1464 38.6012 75.1489 38.6105L75.8553 41.2465C75.8613 41.2689 75.8671 41.2914 75.8727 41.3139L76.5196 43.9244C76.5255 43.9484 76.5312 43.9724 76.5367 43.9964L77.1169 46.5573C77.1221 46.5803 77.1271 46.6033 77.1318 46.6264L77.5459 48.6319C77.5498 48.651 77.5536 48.67 77.5572 48.6891L77.8366 50.16C77.8394 50.1745 77.8421 50.1891 77.8447 50.2037L78.0181 51.1812C78.0216 51.2009 78.0249 51.2207 78.0281 51.2404L78.3277 53.1056C78.3307 53.1244 78.3336 53.1432 78.3363 53.162C78.3372 53.1679 78.338 53.1738 78.3389 53.1796L78.5293 54.542C78.532 54.5615 78.5346 54.5812 78.537 54.6008L78.6486 55.5056C78.6519 55.5318 78.6548 55.5582 78.6575 55.5845L78.8281 57.2668C78.8311 57.296 78.8337 57.3252 78.836 57.3545L78.9006 58.1921C78.9024 58.215 78.904 58.2379 78.9053 58.2608L78.9522 59.0642C78.9536 59.0888 78.9548 59.1134 78.9558 59.1381L78.9857 59.922C78.9868 59.9516 78.9876 59.9813 78.988 60.011L78.9997 60.8565C79.0002 60.8889 79.0002 60.9212 78.9998 60.9535L78.9905 61.6921C78.9902 61.7183 78.9896 61.7445 78.9887 61.7707C78.9883 61.7808 78.9879 61.791 78.9875 61.8011L78.9572 62.5171C78.9554 62.558 78.953 62.5989 78.9499 62.6397L78.897 63.337C78.8934 63.3833 78.889 63.4296 78.8838 63.4758L78.8057 64.1584C78.7993 64.2142 78.7916 64.27 78.7827 64.3255L78.6747 64.9953C78.6645 65.0588 78.6526 65.1221 78.6391 65.185L78.4967 65.8452C78.4803 65.9214 78.4615 65.997 78.4402 66.0721L78.2591 66.7121C78.2369 66.7904 78.2122 66.868 78.1848 66.9448L77.9956 67.4763C77.9634 67.5668 77.9276 67.6561 77.8884 67.744L77.5973 68.3959C77.5428 68.5179 77.4817 68.6369 77.4143 68.7525L77.0217 69.4259C76.9399 69.5663 76.8489 69.7012 76.7493 69.8301L76.2536 70.4713C76.1483 70.6075 76.0336 70.7365 75.9103 70.8575L75.3948 71.3631C75.277 71.4786 75.1517 71.5865 75.0196 71.6861L74.4381 72.1241C74.2952 72.2318 74.1446 72.3296 73.9875 72.4165L73.2856 72.8053C73.1499 72.8805 73.0096 72.9475 72.8655 73.006L72.2445 73.258C72.1246 73.3067 72.0023 73.3493 71.878 73.3858L71.1554 73.5981C71.0226 73.6371 70.8878 73.6691 70.7514 73.6938L69.8902 73.85C69.7715 73.8716 69.6517 73.8876 69.5314 73.8981L68.6653 73.9736C68.5695 73.982 68.4734 73.9868 68.3772 73.9881L67.5172 73.9996C67.4398 74.0007 67.3623 73.9994 67.2849 73.9959L66.4184 73.9561C66.3556 73.9532 66.2928 73.9489 66.2302 73.9429L65.3403 73.8591C65.283 73.8537 65.2259 73.847 65.169 73.8391L64.0927 73.6896C64.0449 73.683 63.9973 73.6755 63.9498 73.6671L63.0029 73.4997C62.9648 73.493 62.9268 73.4857 62.8889 73.4779L61.8352 73.2592C61.8158 73.2552 61.7965 73.251 61.7772 73.2467C61.7663 73.2443 61.7553 73.2418 61.7444 73.2393L60.9337 73.0508C60.9061 73.0444 60.8786 73.0377 60.8511 73.0307L59.6313 72.719C59.602 72.7116 59.5729 72.7038 59.5439 72.6956L58.2747 72.3398C58.2493 72.3327 58.224 72.3253 58.1988 72.3177L56.8957 71.9238C56.8756 71.9177 56.8557 71.9115 56.8358 71.9052L55.9325 71.6161C55.9156 71.6108 55.8988 71.6053 55.8821 71.5996L54.5211 71.1437C54.5016 71.1371 54.4822 71.1305 54.4628 71.1236L53.0642 70.6303C53.0465 70.6241 53.0288 70.6177 53.0112 70.6112L51.5896 70.0864C51.5831 70.084 51.5766 70.0816 51.5701 70.0792C51.5631 70.0766 51.5562 70.074 51.5493 70.0713L50.5777 69.7004C50.5715 69.6981 50.5654 69.6957 50.5593 69.6934C50.5525 69.6907 50.5456 69.688 50.5388 69.6853L49.0791 69.1101C49.064 69.1041 49.0489 69.0981 49.0338 69.0919L47.5524 68.4865C47.5387 68.4809 47.5251 68.4753 47.5115 68.4695L46.0167 67.8387C46.0024 67.8326 45.9881 67.8265 45.9739 67.8203L44.4694 67.164C44.4632 67.1613 44.4571 67.1586 44.4509 67.1559C44.4444 67.153 44.4379 67.1501 44.4314 67.1472L42.922 66.4694C42.9091 66.4636 42.8963 66.4577 42.8834 66.4518L41.3716 65.753C41.3585 65.7469 41.3455 65.7408 41.3325 65.7346L39.8247 65.0171C39.8125 65.0112 39.8003 65.0054 39.7882 64.9994L38.2861 64.2652C38.2726 64.2586 38.2592 64.252 38.2459 64.2452L36.749 63.4919C36.732 63.4834 36.715 63.4747 36.6981 63.4659L34.2632 62.195C34.245 62.1855 34.2269 62.1758 34.2089 62.1661L32.7614 61.3809C32.7472 61.3732 32.733 61.3654 32.7189 61.3576L31.3046 60.5673C31.2903 60.5593 31.2761 60.5513 31.2619 60.5431L29.882 59.7488C29.8742 59.7444 29.8665 59.7399 29.8588 59.7354C29.8535 59.7323 29.8483 59.7293 29.8431 59.7262L28.9313 59.1871C28.9175 59.179 28.9038 59.1708 28.8902 59.1625L27.5737 58.3618C27.5603 58.3537 27.5469 58.3455 27.5337 58.3372L26.6591 57.7906C26.6399 57.7786 26.6208 57.7664 26.6018 57.7541L24.9477 56.6792C24.9211 56.6619 24.8948 56.6443 24.8687 56.6265L23.3032 55.5531C23.2807 55.5377 23.2584 55.5221 23.2363 55.5063L22.4721 54.9581C22.456 54.9465 22.4399 54.9348 22.424 54.9229L21.6945 54.3823C21.6773 54.3696 21.6603 54.3567 21.6433 54.3436L20.941 53.8046C20.9299 53.7961 20.9189 53.7875 20.9079 53.7789C20.9014 53.7738 20.8949 53.7687 20.8885 53.7636L20.2909 53.2882C20.2725 53.2736 20.2543 53.2588 20.2363 53.2439L19.5833 52.7044C19.561 52.6861 19.539 52.6674 19.5172 52.6486L18.8913 52.1072C18.8688 52.0877 18.8466 52.068 18.8246 52.0481L18.2258 51.505C18.1994 51.4811 18.1733 51.4568 18.1476 51.4321L17.5775 50.8851C17.5494 50.8582 17.5217 50.8308 17.4945 50.803L16.9608 50.2584C16.9341 50.2312 16.9079 50.2036 16.8821 50.1757L16.4798 49.7396C16.4475 49.7046 16.4159 49.6691 16.3851 49.6329L15.7713 48.915C15.7448 48.8841 15.7189 48.8527 15.6935 48.821L15.2621 48.2819C15.2421 48.257 15.2224 48.2318 15.2031 48.2063L14.7875 47.6589C14.7632 47.6269 14.7394 47.5945 14.7162 47.5618L14.1481 46.7616C14.1256 46.73 14.1037 46.6981 14.0823 46.6658L13.7071 46.1009C13.6893 46.0742 13.6719 46.0473 13.6549 46.0202L13.3015 45.4573C13.2843 45.4298 13.2674 45.4022 13.2509 45.3743L12.9085 44.7959C12.8888 44.7628 12.8697 44.7293 12.8511 44.6956L12.3862 43.8516C12.3668 43.8165 12.3481 43.7811 12.3299 43.7454L12.0222 43.1416C12.005 43.1079 11.9884 43.074 11.9723 43.0399L11.5659 42.1784C11.5492 42.1429 11.533 42.1072 11.5174 42.0712L11.2501 41.4547C11.2347 41.419 11.2198 41.3831 11.2055 41.347L10.8561 40.4661C10.8417 40.4297 10.8279 40.3932 10.8146 40.3564L10.5886 39.7291C10.5759 39.6939 10.5638 39.6586 10.5522 39.623L10.2611 38.731C10.2492 38.6946 10.2379 38.658 10.2272 38.6213L10.0412 37.9849C10.0305 37.9483 10.0204 37.9117 10.0109 37.8749L9.77352 36.9582C9.76198 36.9136 9.75127 36.8687 9.7414 36.8238L9.53924 35.9015C9.53124 35.865 9.52381 35.8284 9.51693 35.7917L9.39805 35.1577C9.39261 35.1287 9.38752 35.0996 9.38278 35.0705L9.27927 34.434C9.27318 34.3965 9.26766 34.3589 9.26273 34.3213L9.14224 33.401C9.13736 33.3637 9.13306 33.3264 9.12933 33.2891L9.06544 32.649C9.06255 32.6201 9.06 32.591 9.0578 32.562L9.00928 31.922C9.00641 31.8841 9.00413 31.8463 9.00244 31.8084L8.96119 30.8849C8.95955 30.8481 8.95846 30.8113 8.95793 30.7745L8.94863 30.1337C8.94819 30.1036 8.94813 30.0736 8.94843 30.0435L8.9549 29.4023C8.95527 29.3653 8.9562 29.3283 8.9577 29.2914L8.99489 28.3699C8.99636 28.3336 8.99836 28.2973 9.00091 28.2611L9.04579 27.6215C9.04794 27.5909 9.05047 27.5602 9.05339 27.5297L9.11323 26.9028C9.11602 26.8736 9.11915 26.8444 9.12263 26.8153L9.19744 26.1904C9.20091 26.1614 9.20474 26.1324 9.20891 26.1034L9.30029 25.469C9.30567 25.4316 9.31164 25.3943 9.31817 25.3571L9.47788 24.4479C9.48416 24.4122 9.49097 24.3765 9.49831 24.341L9.6281 23.7121C9.63435 23.6818 9.64099 23.6516 9.64801 23.6214L9.79397 22.9945C9.80231 22.9587 9.8112 22.923 9.82062 22.8874L10.0571 21.9937C10.0666 21.958 10.0766 21.9224 10.0871 21.887L10.2707 21.2693C10.2792 21.2405 10.2881 21.2119 10.2974 21.1833L10.4963 20.5692C10.508 20.5329 10.5203 20.4969 10.5332 20.4611L10.8469 19.5857C10.8595 19.5507 10.8726 19.5158 10.8862 19.4812L11.1231 18.8781C11.1346 18.8488 11.1465 18.8197 11.1588 18.7907L11.4115 18.1928C11.4258 18.1589 11.4407 18.1252 11.456 18.0918L11.8462 17.2403C11.8622 17.2053 11.8788 17.1705 11.8959 17.136L12.1862 16.5512C12.2001 16.5234 12.2142 16.4957 12.2287 16.4682L12.5344 15.8894C12.5525 15.8552 12.5711 15.8213 12.5902 15.7876L13.0568 14.9671C13.0753 14.9347 13.0942 14.9025 13.1137 14.8706L13.4565 14.3077C13.4733 14.2802 13.4904 14.253 13.5078 14.2259L13.8669 13.6694C13.888 13.6366 13.9096 13.6042 13.9317 13.5722L14.4731 12.7879C14.4946 12.7568 14.5165 12.726 14.5389 12.6956L14.9336 12.1593C14.9525 12.1336 14.9718 12.1081 14.9914 12.0828L15.4026 11.5529C15.4275 11.5208 15.4529 11.4891 15.4789 11.4578L16.1036 10.7045C16.133 10.669 16.1631 10.6341 16.1938 10.5997L16.8577 9.85632C16.8901 9.82003 16.9232 9.78435 16.9571 9.74931L17.6464 9.03495C17.6738 9.00655 17.7017 8.97858 17.73 8.95103L18.2201 8.474C18.2428 8.45189 18.2658 8.43006 18.289 8.40851L18.7949 7.94022C18.8248 7.91255 18.8551 7.88535 18.8859 7.85864L19.6476 7.19755C19.6835 7.16644 19.7199 7.13598 19.757 7.1062L20.5551 6.46419C20.5927 6.43397 20.6309 6.40444 20.6696 6.37563L21.4868 5.76781C21.5259 5.73871 21.5656 5.71035 21.6058 5.68274L22.4395 5.1107C22.4789 5.08372 22.5187 5.05747 22.559 5.03195L23.4085 4.4945C23.4494 4.46863 23.4908 4.44352 23.5327 4.41919L24.3878 3.92228C24.422 3.90245 24.4564 3.88314 24.4912 3.86435L25.0859 3.54276C25.1143 3.52742 25.1428 3.51244 25.1716 3.49782L25.7724 3.19212C25.8084 3.17382 25.8447 3.15608 25.8812 3.1389L26.7651 2.72348C26.8073 2.70364 26.8499 2.68455 26.8928 2.66623L27.7985 2.27984C27.8425 2.26107 27.8869 2.24311 27.9316 2.22598L28.8373 1.87854C28.8744 1.8643 28.9117 1.85062 28.9493 1.83752L29.5772 1.61848C29.6069 1.60812 29.6368 1.59811 29.6668 1.58846L30.2979 1.38532C30.3356 1.37322 30.3734 1.36168 30.4113 1.35072L31.3259 1.08677C31.3638 1.07584 31.4018 1.06549 31.44 1.05571L32.078 0.892332C32.1069 0.884946 32.1358 0.877889 32.1648 0.871163L32.8061 0.722489C32.8452 0.713406 32.8846 0.704927 32.924 0.697055L33.8524 0.511808C33.8902 0.504265 33.9281 0.49728 33.9661 0.490855L34.613 0.381536C34.6435 0.376392 34.674 0.371609 34.7045 0.367186L35.3527 0.273371C35.3912 0.267787 35.4299 0.262779 35.4686 0.258349L36.4034 0.151414C36.4408 0.147143 36.4782 0.143409 36.5156 0.140214L37.1678 0.08456C37.1995 0.0818532 37.2313 0.0795327 37.2631 0.0775992L37.9165 0.0378466C37.9549 0.0355108 37.9933 0.03374 38.0317 0.0325347L38.9702 0.00311791C39.0088 0.00190945 39.0473 0.00126983 39.0859 0.00119929L39.7369 6.54866e-06ZM39.1581 7.50108L38.3352 7.52688L37.787 7.56022L37.2386 7.60702L36.4179 7.7009L35.8735 7.77971L35.3292 7.87168L34.5168 8.0338L33.9778 8.15876L33.4403 8.2964L32.6394 8.52752L32.1096 8.69803L31.5826 8.88186L30.7997 9.18222L30.0244 9.51298L29.2587 9.87286L28.7549 10.1292L28.2548 10.3996L27.5136 10.8302L26.786 11.2906L26.0716 11.7808L25.3712 12.3017L24.685 12.8537L24.0232 13.428L23.5971 13.8225L23.1836 14.225L22.5861 14.8442L22.0169 15.4815L21.4752 16.1347L21.1308 16.5785L20.7982 17.0305L20.3222 17.7201L20.021 18.187L19.7324 18.6608L19.3221 19.3821L19.0653 19.8684L18.8215 20.3596L18.4784 21.1084L18.2655 21.6119L18.0663 22.119L17.7906 22.888L17.6232 23.4051L17.4682 23.9266L17.26 24.7133L17.1371 25.2412L17.0277 25.7713L16.8872 26.571L16.8101 27.1059L16.7458 27.6436L16.6945 28.1808L16.6566 28.7202L16.6239 29.5317L16.6184 30.0724L16.6263 30.6129L16.6625 31.4243L16.7034 31.9639L16.7574 32.5044L16.8631 33.3123L16.9504 33.8488L17.0508 34.3843L17.2262 35.1843L17.4319 35.9789L17.5858 36.5055L17.8417 37.2896L18.0288 37.809L18.3351 38.5812L18.5557 39.0903L18.9128 39.8472L19.1675 40.347L19.5756 41.0878L19.8638 41.5746L20.1658 42.0556L20.4823 42.5321L20.9819 43.2358L21.3321 43.697L21.6955 44.151L22.2232 44.7683L22.5384 45.11L22.9913 45.5721L23.4808 46.0417L24.0069 46.5188L24.5664 47.0028L25.159 47.4924L25.703 47.9252L26.3534 48.4244L27.0332 48.9282L27.7399 49.4352L29.2326 50.4585L30.8185 51.4891L31.6444 52.0053L32.9204 52.7813L33.7921 53.2966L35.1311 54.0673L36.5028 54.8338L37.9022 55.5928L40.2845 56.8362L41.7357 57.5666L43.1993 58.282L44.6693 58.9815L46.1421 59.6623L47.6132 60.323L49.0776 60.9618L50.5304 61.5749L51.9687 62.1627L53.3861 62.7213L54.3184 63.0771L55.6935 63.5847L57.0363 64.0584L58.3426 64.496L59.1908 64.7674L60.4264 65.1409L61.6139 65.4738L62.7489 65.7638L63.4729 65.932L64.4242 66.1294L65.2427 66.2741L66.162 66.4018L66.872 66.4687L67.5283 66.4988L68.1277 66.4908L68.6695 66.4435L69.1478 66.3567L69.4844 66.2578L69.7092 66.1666L69.9715 66.0213L70.1398 65.8945L70.2934 65.7439L70.4814 65.5008L70.65 65.2116L70.8005 64.8745L70.9003 64.5941L71.0163 64.1842L71.1137 63.7325L71.1929 63.2413L71.2534 62.7119L71.2964 62.1454L71.3219 61.5452L71.3299 60.9097L71.3194 60.1572L71.2926 59.4547L71.2499 58.7226L71.1912 57.9633L71.029 56.3642L70.9259 55.5284L70.7448 54.2325L70.4559 52.4338L70.2915 51.5078L70.0218 50.0875L69.6207 48.1451L69.0565 45.6548L68.4269 43.1139L67.7385 40.5452L66.9962 37.9704L66.3675 35.92L65.5435 33.3875L64.8564 31.3999L64.3274 29.9388L63.9682 28.981L63.2378 27.1119L62.6795 25.7559L62.3038 24.876L61.5445 23.1829L60.7766 21.5848L60.3903 20.8248L60.0032 20.0931L59.6155 19.3909L59.2762 18.8025L58.8889 18.1602L58.5015 17.551L58.115 16.9764L57.7293 16.4382L57.3467 15.9389L57.0131 15.5341L56.3318 14.7705L55.7268 14.1462L55.1032 13.5499L54.678 13.1684L54.2442 12.7982L53.5793 12.2656L52.8993 11.762L52.2037 11.2855L51.7327 10.9836L51.2545 10.6941L50.5265 10.2826L50.0342 10.0239L49.5375 9.77802L48.7833 9.43268L48.2736 9.21788L47.7597 9.01543L46.9812 8.73531L46.4584 8.56442L45.9319 8.40645L45.1352 8.19257L44.601 8.06604L44.0644 7.95189L43.2548 7.80461L42.7132 7.72276L42.1689 7.65337L41.6238 7.59715L41.0773 7.55324L40.2552 7.51145L39.707 7.50007L39.1581 7.50108Z" fill="#7D86A9"/>
<path fill-rule="evenodd" clip-rule="evenodd" d="M40.2669 64.3426C39.7182 64.6048 37.7099 65.5078 37.2609 65.7153C36.812 65.9228 36.089 66.2524 35.6543 66.4478C35.2196 66.6432 34.5374 66.9453 34.1384 67.1191C33.7393 67.293 33.0921 67.5716 32.7002 67.7381C32.3082 67.9047 31.696 68.1607 31.3397 68.3071C30.9834 68.4534 30.3712 68.7013 29.9792 68.8579C29.5873 69.0145 28.9343 69.2709 28.5281 69.4277C28.1219 69.5845 27.4689 69.8316 27.0769 69.9766C26.685 70.1217 26.0436 70.3547 25.6517 70.4943C25.2597 70.634 24.5892 70.8671 24.1617 71.0124C23.7341 71.1577 23.0636 71.378 22.6716 71.5019C22.2797 71.6257 21.7083 71.8027 21.4019 71.895C21.0954 71.9873 20.6057 72.1305 20.3135 72.2132C20.0213 72.2959 19.5491 72.4251 19.264 72.5005C18.979 72.5758 18.5067 72.6959 18.2145 72.7674C17.9223 72.8389 17.4792 72.9424 17.2298 72.9974C16.9804 73.0525 16.5489 73.143 16.271 73.1987C15.9931 73.2544 15.5325 73.3393 15.2474 73.3874C14.9624 73.4355 14.5192 73.5034 14.2627 73.5383C14.0062 73.5731 13.5689 73.6242 13.2909 73.6516C13.013 73.6791 12.5932 73.7132 12.3581 73.7274C12.1229 73.7416 11.5981 73.7517 11.1919 73.7497C10.7858 73.7478 10.3077 73.7369 10.1295 73.7255C9.95134 73.7142 9.61317 73.6807 9.37801 73.6511C9.14284 73.6215 8.79315 73.569 8.60092 73.5345C8.40869 73.5 8.07491 73.4278 7.85918 73.3741C7.64346 73.3204 7.29043 73.2183 7.07465 73.1473C6.85888 73.0763 6.53964 72.9596 6.36523 72.8879C6.19082 72.8162 5.89653 72.6819 5.71124 72.5895C5.52596 72.4971 5.2461 72.3466 5.08932 72.255C4.93254 72.1634 4.66813 71.9935 4.50173 71.8774C4.33533 71.7614 4.07298 71.564 3.91872 71.4387C3.76447 71.3135 3.49633 71.0726 3.32286 70.9034C3.14939 70.7342 2.88381 70.4504 2.73269 70.2726C2.58158 70.0949 2.36199 69.8148 2.24473 69.6503C2.12747 69.4858 1.95235 69.2232 1.85557 69.0668C1.7588 68.9104 1.59659 68.6231 1.49511 68.4283C1.39363 68.2335 1.25573 67.9489 1.18868 67.7959C1.12162 67.6428 1.00676 67.3591 0.933433 67.1655C0.860103 66.9719 0.741185 66.6133 0.669167 66.3686C0.597149 66.124 0.492946 65.7245 0.437604 65.481C0.382263 65.2375 0.307548 64.8676 0.271572 64.6589C0.235595 64.4501 0.182223 64.0859 0.152965 63.8493C0.12371 63.6128 0.0822537 63.2371 0.0608431 63.0145C0.0347272 62.7429 0.0165716 62.1351 0.00568046 61.1677C-0.00529925 60.1924 -0.000411987 59.5047 0.0207772 59.0427C0.0380091 58.667 0.0689158 58.1376 0.0894597 57.8663C0.110002 57.595 0.15056 57.1169 0.179588 56.8038C0.208615 56.4907 0.267509 55.9272 0.310462 55.5516C0.353414 55.1759 0.435077 54.527 0.491932 54.1096C0.548789 53.6921 0.647554 53.0148 0.711411 52.6043C0.775268 52.1939 0.89095 51.4937 0.968482 51.0485C1.04601 50.6033 1.19695 49.7836 1.3039 49.227C1.41085 48.6705 1.59709 47.7484 1.71777 47.1779C1.83845 46.6074 2.0365 45.7067 2.15788 45.1762C2.27926 44.6458 2.49683 43.7293 2.64138 43.1397C2.78592 42.5501 3.0263 41.6009 3.17555 41.0305C3.32481 40.46 3.58106 39.5094 3.745 38.9181C3.90895 38.3267 4.18872 37.3477 4.36672 36.7424C4.54472 36.1372 4.84232 35.1525 5.02806 34.5542C5.21379 33.9559 5.51073 33.0224 5.68793 32.4797C5.86513 31.9371 6.16325 31.0491 6.35043 30.5065C6.53761 29.9638 6.8535 29.0702 7.05241 28.5206C7.25132 27.971 7.54771 27.1684 7.71104 26.7371C7.87438 26.3057 8.15375 25.5852 8.33188 25.1358C8.51 24.6864 8.81109 23.9465 9.00096 23.4914C9.19084 23.0364 9.50385 22.3055 9.69656 21.8672C9.88926 21.4289 10.1924 20.7572 10.3702 20.3746C10.548 19.992 10.8267 19.4057 10.9896 19.0718C11.1525 18.7378 11.4684 18.1117 11.6915 17.6804C11.9147 17.249 12.2563 16.6115 12.4507 16.2637C12.6451 15.9158 12.9501 15.3865 13.1285 15.0873C13.3069 14.7882 13.5875 14.3328 13.7521 14.0754C13.9167 13.818 14.1913 13.4025 14.3624 13.152C14.5335 12.9016 14.7954 12.5316 14.9443 12.3298C15.0933 12.1281 15.3435 11.8004 15.5004 11.6017C15.6572 11.403 15.9341 11.0672 16.1157 10.8554C16.2972 10.6437 16.6189 10.2826 16.8307 10.053C17.0424 9.82342 17.4258 9.42622 17.6827 9.17034C17.9395 8.91447 18.3363 8.53403 18.5643 8.32493C18.7924 8.11584 19.1209 7.82251 19.2944 7.6731C19.4679 7.52369 19.7769 7.26544 19.9811 7.09921C20.1853 6.93298 20.5248 6.66599 20.7355 6.50589C20.9461 6.34579 21.2785 6.10128 21.474 5.96253C21.6695 5.82378 21.9985 5.5962 22.2052 5.45678C22.4118 5.31737 22.7625 5.0894 22.9845 4.95016C23.2065 4.81094 23.5738 4.58897 23.8008 4.4569C24.0278 4.32482 24.4234 4.10259 24.6799 3.96304C24.9365 3.82349 25.3971 3.58609 25.7035 3.43549C26.0099 3.28488 26.4356 3.0828 26.6494 2.98642C26.8631 2.89005 27.213 2.73752 27.4268 2.64747C27.6405 2.55743 28.0079 2.40977 28.243 2.31935C28.4782 2.22892 28.8747 2.08334 29.1241 1.99584C29.3735 1.90833 29.7991 1.76632 30.0699 1.68026C30.3407 1.5942 30.8072 1.45577 31.1065 1.37264C31.4058 1.28952 31.9072 1.16003 32.2208 1.0849C32.5343 1.00976 33.0824 0.890864 33.4387 0.820682C33.795 0.750495 34.3372 0.654213 34.6437 0.606724C34.9501 0.559234 35.3932 0.496724 35.6284 0.467819C35.8635 0.438914 36.2208 0.398694 36.4223 0.378448C36.6238 0.358196 37.0844 0.321015 37.4459 0.295816C37.9514 0.26058 38.4083 0.25 39.4247 0.25C40.1722 0.25 40.994 0.263897 41.3164 0.281987C41.63 0.299583 42.0731 0.331132 42.3011 0.3521C42.5292 0.373069 42.9988 0.424566 43.3448 0.466534C43.6908 0.508502 44.2155 0.582457 44.5109 0.630885C44.8063 0.679307 45.2798 0.764404 45.5632 0.819984C45.8466 0.875565 46.3481 0.984897 46.6775 1.06295C47.007 1.141 47.5156 1.27098 47.8077 1.35179C48.0999 1.4326 48.5463 1.56255 48.7998 1.64058C49.0532 1.71861 49.5197 1.87414 49.8363 1.9862C50.153 2.09827 50.6511 2.2843 50.9433 2.39962C51.2354 2.51494 51.6978 2.70669 51.9707 2.82574C52.2435 2.9448 52.7158 3.16333 53.0202 3.31139C53.3245 3.45943 53.7601 3.67863 53.9881 3.79848C54.2161 3.91834 54.566 4.10902 54.7655 4.22222C54.965 4.33542 55.2916 4.52587 55.4911 4.64545C55.6906 4.76503 56.0521 4.99048 56.2944 5.14645C56.5367 5.30242 56.8924 5.53883 57.0848 5.6718C57.2772 5.80478 57.5979 6.03324 57.7974 6.1795C57.9969 6.32576 58.3001 6.55341 58.4711 6.68538C58.6422 6.81735 58.9596 7.07162 59.1764 7.25041C59.3933 7.42921 59.7548 7.73708 59.9798 7.93458C60.2047 8.13208 60.6089 8.50453 60.8781 8.76224C61.1472 9.01995 61.5339 9.40346 61.7374 9.61446C61.9408 9.82547 62.2755 10.1858 62.481 10.4153C62.6865 10.6448 62.9918 10.9958 63.1593 11.1954C63.3268 11.3949 63.6057 11.7404 63.7789 11.963C63.9522 12.1856 64.2152 12.5328 64.3633 12.7346C64.5115 12.9363 64.7458 13.2665 64.8839 13.4682C65.0221 13.67 65.2694 14.0457 65.4336 14.3031C65.5977 14.5605 65.8486 14.9703 65.9912 15.2138C66.1337 15.4573 66.3649 15.8671 66.5051 16.1245C66.6453 16.3819 66.8523 16.7804 66.9652 17.01C67.0781 17.2395 67.2467 17.5924 67.3397 17.7942C67.4328 17.996 67.5835 18.3353 67.6746 18.5483C67.7657 18.7614 67.9147 19.1256 68.0057 19.3579C68.0968 19.5901 60.4184 20.83 60.4184 20.83C60.3319 20.6421 60.1537 20.2778 60.0224 20.0204C59.891 19.763 59.6761 19.3646 59.5448 19.135C59.4135 18.9054 59.1839 18.5241 59.0347 18.2875C58.8855 18.051 58.6408 17.681 58.4911 17.4653C58.3413 17.2497 58.0523 16.8569 57.8488 16.5925C57.6453 16.3282 57.3438 15.9537 57.1786 15.7604C57.0135 15.5671 56.7421 15.2597 56.5755 15.0774C56.4089 14.895 56.0209 14.5006 55.7134 14.2009C55.4058 13.9013 54.9903 13.5142 54.79 13.3408C54.5896 13.1674 54.2573 12.8905 54.0514 12.7256C53.8456 12.5606 53.4731 12.276 53.2237 12.0932C52.9742 11.9103 52.5253 11.6008 52.226 11.4054C51.9267 11.21 51.4836 10.9352 51.2413 10.7946C50.999 10.654 50.6375 10.4521 50.438 10.3459C50.2384 10.2396 49.8828 10.06 49.6476 9.94674C49.4124 9.83344 49.0408 9.6628 48.8219 9.56754C48.6029 9.47227 48.2239 9.31647 47.9797 9.22133C47.7355 9.12618 47.3491 8.98481 47.121 8.90717C46.893 8.82954 46.5373 8.71423 46.3307 8.65093C46.124 8.58763 45.745 8.47999 45.4885 8.41173C45.2319 8.34346 44.783 8.23565 44.4908 8.17213C44.1986 8.10862 43.7205 8.01642 43.4284 7.96724C43.1362 7.91805 42.6697 7.84989 42.3918 7.81576C42.1139 7.78163 41.6649 7.73546 41.3941 7.71317C41.1233 7.69087 40.5908 7.66312 40.2107 7.6515C39.8306 7.63989 39.2009 7.63984 38.8114 7.65142C38.4218 7.66299 37.8816 7.69074 37.6108 7.71308C37.34 7.73542 36.894 7.78134 36.6196 7.81511C36.3453 7.84889 35.908 7.91141 35.6479 7.95404C35.3877 7.99668 34.9825 8.07166 34.7473 8.12065C34.5122 8.16965 34.1157 8.2597 33.8663 8.32077C33.6169 8.38183 33.2145 8.48858 32.9723 8.55798C32.73 8.62738 32.3269 8.7526 32.0766 8.83624C31.8262 8.91989 31.4414 9.05583 31.2214 9.13833C31.0014 9.22084 30.6532 9.35872 30.4476 9.44473C30.242 9.53074 29.878 9.69107 29.6386 9.80102C29.3992 9.91097 29.004 10.1042 28.7604 10.2305C28.5168 10.3568 28.1463 10.558 27.9369 10.6775C27.7276 10.7971 27.3814 11.0028 27.1676 11.1347C26.9538 11.2666 26.5772 11.5122 26.3306 11.6804C26.0841 11.8486 25.7059 12.1201 25.4903 12.2837C25.2746 12.4473 24.9458 12.7054 24.7595 12.8572C24.5732 13.009 24.275 13.2617 24.0969 13.4188C23.9187 13.5758 23.5504 13.9216 23.2783 14.1871C23.0062 14.4526 22.6368 14.8293 22.4573 15.0241C22.2779 15.2189 22.0241 15.5035 21.8934 15.6565C21.7628 15.8096 21.5155 16.1169 21.3439 16.3396C21.1723 16.5622 20.8608 16.9953 20.6516 17.3021C20.4424 17.6089 20.1062 18.1291 19.9045 18.4581C19.7028 18.7871 19.3909 19.3159 19.2115 19.6332C19.032 19.9505 18.6318 20.7054 18.322 21.3106C18.0123 21.9159 17.6206 22.7071 17.4515 23.0688C17.2825 23.4306 17.0398 23.9596 16.9123 24.2444C16.7848 24.5292 16.5526 25.0586 16.3963 25.4208C16.2401 25.783 15.9746 26.4151 15.8064 26.8256C15.6382 27.2361 15.3716 27.902 15.2139 28.3055C15.0562 28.709 14.7929 29.3987 14.6288 29.8381C14.4648 30.2774 14.2006 31.0003 14.0417 31.4445C13.8828 31.8886 13.6206 32.6391 13.4591 33.1122C13.2977 33.5852 13.0488 34.3309 12.9061 34.7692C12.7634 35.2075 12.5536 35.8621 12.4397 36.2238C12.3259 36.5856 12.1394 37.189 12.0251 37.5646C11.9109 37.9403 11.7242 38.5664 11.6102 38.956C11.4963 39.3456 11.3039 40.0173 11.1827 40.4486C11.0616 40.8799 10.8617 41.6085 10.7385 42.0677C10.6154 42.5268 10.4292 43.2384 10.3248 43.6488C10.2204 44.0593 10.0627 44.6911 9.97449 45.0529C9.88626 45.4146 9.74022 46.0294 9.64997 46.419C9.55972 46.8085 9.41578 47.4461 9.3301 47.8356C9.24443 48.2252 9.10961 48.8571 9.03051 49.2397C8.95141 49.6223 8.82763 50.2428 8.75545 50.6184C8.68326 50.9941 8.57802 51.5633 8.52158 51.8833C8.46514 52.2034 8.37291 52.7441 8.31663 53.085C8.26034 53.4259 8.1732 53.9837 8.12297 54.3246C8.07275 54.6655 8.00282 55.1664 7.96757 55.4377C7.93232 55.709 7.87416 56.1872 7.83831 56.5002C7.80246 56.8133 7.74972 57.3313 7.7211 57.6513C7.69249 57.9713 7.65114 58.5121 7.62921 58.853C7.60729 59.1938 7.5818 59.8389 7.57257 60.2864C7.56208 60.7957 7.56726 61.3304 7.58642 61.7159C7.60326 62.0546 7.63408 62.4911 7.65491 62.6858C7.67573 62.8805 7.71114 63.1536 7.73358 63.2928C7.75603 63.4319 7.80321 63.6791 7.83843 63.8421C7.87366 64.0051 7.94832 64.2784 8.00434 64.4493C8.06036 64.6202 8.15887 64.8656 8.22323 64.9946C8.2876 65.1236 8.38569 65.2943 8.44121 65.374C8.49673 65.4538 8.61069 65.5855 8.69446 65.6668C8.77824 65.7481 8.92276 65.8588 9.01563 65.9128C9.1085 65.9668 9.25797 66.0402 9.34779 66.0758C9.4376 66.1114 9.63462 66.1697 9.7856 66.2052C9.93659 66.2407 10.1778 66.2852 10.3216 66.3042C10.5116 66.3292 10.8094 66.336 11.4122 66.329C12.0458 66.3217 12.3484 66.3069 12.6949 66.2661C12.9444 66.2368 13.3292 66.1853 13.5501 66.1517C13.771 66.1181 14.1675 66.0506 14.4311 66.0018C14.6948 65.9529 15.1496 65.8604 15.4418 65.7961C15.7339 65.7318 16.2179 65.6186 16.5172 65.5445C16.8165 65.4704 17.3412 65.3336 17.6833 65.2406C18.0253 65.1475 18.5851 64.988 18.9271 64.8861C19.2692 64.7841 19.8406 64.609 20.1969 64.4968C20.5532 64.3847 21.1829 64.1785 21.5962 64.0386C22.0095 63.8987 22.6392 63.6807 22.9956 63.5542C23.3519 63.4277 23.9582 63.2078 24.3431 63.0656C24.7279 62.9234 25.445 62.6508 25.9367 62.4599C26.4284 62.269 27.1922 61.9665 27.6341 61.7878C28.0759 61.6091 28.8164 61.3037 29.2796 61.1092C29.7428 60.9148 30.4483 60.6135 30.8473 60.4398C31.2464 60.2661 31.9169 59.97 32.3374 59.7819L40.2669 64.3426Z" fill="#7D86A9"/>
</svg>
