<svg width="92" height="89" viewBox="0 0 92 89" fill="none" xmlns="http://www.w3.org/2000/svg">
<path d="M46.7557 5.15882L47.842 5.21529L48.5922 5.27693L49.3283 5.35457L50.0645 5.45056L50.8105 5.56584L51.8803 5.76488L52.6178 5.92533L53.3521 6.10319L54.4028 6.39164L55.1282 6.6142L55.8489 6.85512L56.8757 7.23296L57.5823 7.51764L58.2843 7.82019L59.2812 8.28697L59.9654 8.63329L60.644 8.99796L61.6043 9.55319L62.2632 9.96115L62.9137 10.3875L63.8427 11.0382L64.7628 11.7351L65.6515 12.463L66.2477 12.9834L66.8322 13.5198L67.6648 14.3339L68.4861 15.2006L69.3917 16.2386L69.8812 16.8461L70.4133 17.5561L70.938 18.3048L71.4523 19.0868L71.9582 19.9004L72.4547 20.7426L72.8886 21.512L73.3753 22.4135L73.8578 23.3461L74.3426 24.3216L75.2767 26.3096L76.1945 28.4026L76.6555 29.5064L77.327 31.1745L78.197 33.4515L78.6318 34.6367L79.2631 36.4201L80.0812 38.8401L81.0583 41.9113L81.8071 44.4089L82.6874 47.5314L83.505 50.6516L84.2538 53.7416L84.9254 56.7728L85.4046 59.1467L85.728 60.8877L85.9288 62.0448L86.2756 64.2525L86.496 65.8651L86.6251 66.936L86.8226 68.9273L86.8975 69.9188L86.9518 70.8697L86.9864 71.7976L87 72.7985L86.9892 73.6727L86.9541 74.5202L86.8928 75.3455L86.8025 76.1534L86.6776 76.9463L86.5128 77.7279L86.3032 78.4854L86.0841 79.1145L85.7472 79.8862L85.2928 80.6833L84.719 81.4423L84.1223 82.0408L83.4493 82.5594L82.6369 83.0195L81.9181 83.3179L81.0817 83.5691L80.0849 83.7541L79.0825 83.8435L78.0871 83.8571L77.0841 83.8101L76.0541 83.7108L74.8083 83.5338L73.7122 83.3358L72.4926 83.077L71.5543 82.8539L70.1424 82.485L68.6733 82.0639L67.165 81.5976L66.1195 81.2555L64.5442 80.7158L62.9254 80.1318L61.28 79.5107L60.1554 79.0717L58.4659 78.3908L56.7512 77.6742L55.021 76.9275L53.2796 76.1506L51.5326 75.3483L49.7827 74.5211L48.0376 73.6718L46.299 72.8027L44.5665 71.911L41.7482 70.4067L40.0728 69.4774L38.4357 68.542L36.8385 67.6018L35.7831 66.9638L34.2594 66.0161L33.2471 65.3691L31.3325 64.0968L29.5204 62.8263L28.6359 62.1774L27.7917 61.5375L26.9788 60.8995L26.2871 60.3367L25.5313 59.6982L24.8068 59.0573L24.1137 58.4145L23.4538 57.7671L22.8361 57.1224L22.3704 56.6063L21.66 55.7565L21.1607 55.1184L20.6796 54.4705L20.022 53.5233L19.5877 52.8546L19.1787 52.1884L18.7823 51.5037L18.2441 50.5048L17.888 49.79L17.4176 48.7704L17.1083 48.0405L16.7039 46.9978L16.4423 46.2553L16.1054 45.1994L15.8901 44.4461L15.6154 43.361L15.3814 42.2694L15.2438 41.5189L15.124 40.7655L14.9845 39.6762L14.9106 38.9187L14.8544 38.1611L14.8067 37.068L14.7959 36.3095L14.8034 35.5505L14.8465 34.4598L14.8984 33.7027L14.9677 32.9607L15.0543 32.221L15.16 31.47L15.3449 30.3939L15.4951 29.6495L15.6641 28.9074L15.9378 27.8497L16.1503 27.1185L16.3806 26.3915L16.7437 25.3553L17.018 24.6415L17.3105 23.9338L17.7621 22.9259L18.0981 22.2338L18.4519 21.5487L18.992 20.5775L19.3888 19.9112L19.8044 19.2524L20.4311 18.3241L20.8878 17.6893L21.3638 17.0621L22.0868 16.1704L22.8553 15.2905L23.6532 14.4449L24.2204 13.8803L24.8059 13.326L25.6876 12.5435L26.6114 11.7836L27.5572 11.0641L28.5222 10.387L29.5055 9.75082L30.4953 9.16265L31.1837 8.78198L31.8791 8.42013L32.9022 7.92842L33.9505 7.47105L34.9988 7.0598L35.7256 6.80053L36.4561 6.56009L37.5147 6.24765L38.2532 6.05426L38.9955 5.87828L40.07 5.659L40.8188 5.52961L41.569 5.41856L42.651 5.29198L43.4058 5.22611L44.1621 5.17905L45.2483 5.14423L46.0018 5.14282L46.7557 5.15882Z" stroke="#A89FDF" stroke-width="8.87755" stroke-linecap="round" stroke-linejoin="round"/>
<path fill-rule="evenodd" clip-rule="evenodd" d="M45.8674 43.6123C40.4741 43.6123 36.1021 39.2402 36.1021 33.8469C36.1021 28.4537 40.4741 24.0817 45.8674 24.0817C51.2606 24.0817 55.6327 28.4537 55.6327 33.8469C55.6327 39.2402 51.2606 43.6123 45.8674 43.6123ZM43.437 33.6692C45.2348 33.6692 46.6922 32.2119 46.6922 30.4141C46.6922 28.6164 45.2348 27.1591 43.437 27.1591C41.6393 27.1591 40.1819 28.6164 40.1819 30.4141C40.1819 32.2119 41.6393 33.6692 43.437 33.6692Z" fill="#A89FDF"/>
<path fill-rule="evenodd" clip-rule="evenodd" d="M46.607 76.8648C45.9719 77.175 43.6474 78.244 43.1277 78.4895C42.6081 78.7351 41.7713 79.1253 41.2681 79.3566C40.765 79.5878 39.9754 79.9454 39.5135 80.1513C39.0516 80.357 38.3025 80.6868 37.8489 80.8839C37.3952 81.0811 36.6866 81.3842 36.2742 81.5574C35.8618 81.7306 35.1532 82.024 34.6995 82.2093C34.2459 82.3947 33.49 82.6982 33.0199 82.8838C32.5497 83.0695 31.7939 83.3619 31.3402 83.5336C30.8866 83.7053 30.1442 83.9811 29.6906 84.1464C29.2369 84.3117 28.4608 84.5876 27.966 84.7596C27.4711 84.9316 26.695 85.1923 26.2413 85.3389C25.7877 85.4856 25.1263 85.695 24.7716 85.8043C24.417 85.9136 23.8501 86.0831 23.5119 86.181C23.1737 86.2788 22.6271 86.4318 22.2972 86.521C21.9672 86.6101 21.4206 86.7523 21.0824 86.8369C20.7442 86.9216 20.2313 87.0441 19.9427 87.1092C19.654 87.1744 19.1546 87.2816 18.8329 87.3475C18.5112 87.4134 17.9781 87.5139 17.6481 87.5708C17.3182 87.6277 16.8053 87.7081 16.5084 87.7494C16.2114 87.7907 15.7053 87.8511 15.3836 87.8836C15.0619 87.9161 14.576 87.9565 14.3039 87.9733C14.0317 87.9901 13.4243 88.002 12.9541 87.9997C12.484 87.9974 11.9306 87.9845 11.7244 87.9711C11.5182 87.9576 11.1268 87.9179 10.8546 87.8829C10.5824 87.8479 10.1776 87.7858 9.95515 87.745C9.73265 87.7041 9.34631 87.6187 9.09663 87.5551C8.84694 87.4915 8.43831 87.3707 8.18857 87.2866C7.93883 87.2026 7.56932 87.0644 7.36745 86.9795C7.16558 86.8947 6.82494 86.7357 6.61049 86.6264C6.39603 86.517 6.0721 86.3388 5.89064 86.2304C5.70918 86.122 5.40313 85.9209 5.21053 85.7835C5.01794 85.6461 4.71428 85.4125 4.53573 85.2642C4.35719 85.116 4.04683 84.8309 3.84605 84.6306C3.64526 84.4303 3.33787 84.0943 3.16296 83.8839C2.98805 83.6736 2.73389 83.3421 2.59817 83.1473C2.46244 82.9526 2.25975 82.6418 2.14774 82.4566C2.03573 82.2715 1.84798 81.9314 1.73052 81.7009C1.61306 81.4703 1.45345 81.1334 1.37584 80.9522C1.29822 80.771 1.16528 80.4353 1.0804 80.2061C0.995528 79.977 0.857886 79.5525 0.774528 79.2629C0.691171 78.9733 0.570561 78.5005 0.506506 78.2123C0.442451 77.924 0.355972 77.4861 0.314332 77.2391C0.27269 76.992 0.210914 76.5608 0.17705 76.2808C0.143188 76.0008 0.0952047 75.5562 0.070423 75.2927C0.0401951 74.9712 0.0191808 74.2518 0.00657486 73.1067C-0.00613362 71.9523 -0.000476855 71.1382 0.0240486 70.5914C0.0439937 70.1467 0.0797667 69.5201 0.103545 69.1989C0.127322 68.8778 0.174266 68.3118 0.207864 67.9413C0.241462 67.5707 0.309629 66.9037 0.359344 66.459C0.40906 66.0143 0.503581 65.2462 0.569387 64.7521C0.635196 64.2581 0.749512 63.4563 0.823424 62.9704C0.897335 62.4846 1.03123 61.6559 1.12097 61.1288C1.21071 60.6018 1.38541 59.6316 1.5092 58.9728C1.63299 58.314 1.84855 57.2226 1.98823 56.5473C2.12791 55.8721 2.35715 54.8059 2.49764 54.178C2.63813 53.5501 2.88997 52.4653 3.05727 51.7674C3.22457 51.0695 3.5028 49.946 3.67555 49.2708C3.84831 48.5955 4.14491 47.4703 4.33466 46.7704C4.52442 46.0704 4.84824 44.9116 5.05427 44.1951C5.2603 43.4787 5.60475 42.3131 5.81973 41.6049C6.03471 40.8967 6.37841 39.7918 6.5835 39.1495C6.7886 38.5072 7.13367 37.4561 7.35032 36.8138C7.56697 36.1715 7.93259 35.1137 8.16282 34.4631C8.39305 33.8126 8.7361 32.8626 8.92516 32.352C9.11421 31.8415 9.43758 30.9886 9.64374 30.4567C9.84991 29.9248 10.1984 29.0489 10.4182 28.5103C10.6379 27.9716 11.0003 27.1065 11.2233 26.5877C11.4463 26.0689 11.7972 25.2739 12.003 24.821C12.2088 24.3681 12.5314 23.6741 12.72 23.2788C12.9085 22.8835 13.2741 22.1424 13.5324 21.6319C13.7907 21.1213 14.1861 20.3667 14.4111 19.955C14.6361 19.5432 14.9891 18.9166 15.1956 18.5625C15.4021 18.2084 15.7269 17.6694 15.9174 17.3647C16.1079 17.0601 16.4258 16.5682 16.6238 16.2718C16.8219 15.9753 17.1249 15.5374 17.2973 15.2986C17.4697 15.0598 17.7593 14.6719 17.9409 14.4368C18.1225 14.2016 18.443 13.804 18.6531 13.5534C18.8632 13.3027 19.2356 12.8753 19.4807 12.6035C19.7257 12.3318 20.1695 11.8617 20.4668 11.5588C20.7642 11.2559 21.2234 10.8056 21.4873 10.5581C21.7513 10.3106 22.1315 9.96338 22.3323 9.78653C22.5332 9.60968 22.8908 9.30399 23.1272 9.10723C23.3635 8.91047 23.7564 8.59443 24.0003 8.40493C24.2441 8.21543 24.6288 7.92601 24.8551 7.76177C25.0814 7.59754 25.4622 7.32815 25.7014 7.16313C25.9406 6.99811 26.3465 6.72827 26.6035 6.56346C26.8604 6.39866 27.2855 6.13592 27.5483 5.97959C27.811 5.82326 28.2689 5.5602 28.5658 5.39503C28.8628 5.22985 29.3959 4.94885 29.7506 4.77058C30.1052 4.5923 30.5979 4.35311 30.8453 4.23903C31.0928 4.12495 31.4977 3.94441 31.7451 3.83783C31.9926 3.73124 32.4178 3.55647 32.6899 3.44943C32.9621 3.3424 33.421 3.17008 33.7097 3.0665C33.9984 2.96292 34.4911 2.79483 34.8045 2.69296C35.1179 2.59109 35.6578 2.42724 36.0042 2.32884C36.3507 2.23045 36.931 2.07718 37.294 1.98825C37.6569 1.89931 38.2913 1.75857 38.7037 1.6755C39.1161 1.59242 39.7437 1.47846 40.0984 1.42224C40.453 1.36603 40.9659 1.29204 41.2381 1.25783C41.5103 1.22361 41.9238 1.17601 42.1571 1.15204C42.3903 1.12807 42.9234 1.08406 43.3418 1.05423C43.9269 1.01252 44.4558 1 45.6322 1C46.4974 1 47.4485 1.01645 47.8217 1.03786C48.1847 1.05869 48.6975 1.09603 48.9615 1.12085C49.2254 1.14567 49.7691 1.20663 50.1695 1.25631C50.57 1.30598 51.1774 1.39352 51.5192 1.45084C51.8611 1.50816 52.4092 1.60889 52.7372 1.67468C53.0653 1.74046 53.6456 1.86988 54.027 1.96227C54.4083 2.05466 54.997 2.20851 55.3351 2.30416C55.6733 2.39981 56.19 2.55363 56.4834 2.646C56.7767 2.73835 57.3166 2.92245 57.6831 3.0551C58.0496 3.18774 58.6262 3.40795 58.9644 3.54445C59.3025 3.68094 59.8377 3.90792 60.1535 4.04884C60.4694 4.18976 61.016 4.44844 61.3683 4.62368C61.7205 4.79892 62.2247 5.05838 62.4886 5.20025C62.7526 5.34212 63.1575 5.56782 63.3884 5.70181C63.6194 5.8358 63.9973 6.06124 64.2283 6.20278C64.4592 6.34432 64.8776 6.61118 65.1581 6.79579C65.4385 6.98041 65.8502 7.26024 66.0729 7.41764C66.2956 7.57504 66.6667 7.84547 66.8977 8.0186C67.1286 8.19172 67.4796 8.46118 67.6775 8.6174C67.8755 8.7736 68.2428 9.07457 68.4939 9.2862C68.7449 9.49784 69.1633 9.86226 69.4237 10.096C69.684 10.3298 70.1519 10.7707 70.4634 11.0757C70.7749 11.3808 71.2225 11.8347 71.458 12.0845C71.6935 12.3342 72.0808 12.7608 72.3187 13.0324C72.5566 13.304 72.9099 13.7195 73.1038 13.9557C73.2977 14.192 73.6205 14.6009 73.821 14.8644C74.0216 15.1279 74.326 15.5389 74.4975 15.7777C74.6689 16.0165 74.9401 16.4073 75.1 16.6461C75.2599 16.8849 75.5462 17.3296 75.7362 17.6342C75.9262 17.9389 76.2166 18.424 76.3816 18.7123C76.5465 19.0005 76.8142 19.4856 76.9764 19.7903C77.1387 20.095 77.3783 20.5666 77.509 20.8383C77.6397 21.1101 77.8347 21.5278 77.9425 21.7666C78.0502 22.0054 78.2246 22.4071 78.3301 22.6593C78.4355 22.9114 78.608 23.3426 78.7134 23.6175C78.8187 23.8924 69.9314 25.36 69.9314 25.36C69.8313 25.1376 69.625 24.7064 69.473 24.4017C69.3209 24.097 69.0722 23.6254 68.9202 23.3537C68.7682 23.0819 68.5025 22.6305 68.3298 22.3505C68.1571 22.0705 67.8739 21.6326 67.7006 21.3773C67.5272 21.1221 67.1927 20.6572 66.9572 20.3442C66.7217 20.0313 66.3726 19.5881 66.1815 19.3593C65.9904 19.1305 65.6762 18.7666 65.4834 18.5508C65.2905 18.3349 64.8415 17.8681 64.4855 17.5134C64.1296 17.1587 63.6486 16.7005 63.4168 16.4952C63.1849 16.29 62.8002 15.9623 62.5619 15.767C62.3237 15.5717 61.8925 15.2348 61.6038 15.0184C61.3151 14.802 60.7955 14.4357 60.4491 14.2044C60.1026 13.9731 59.5897 13.6477 59.3093 13.4814C59.0289 13.315 58.6104 13.076 58.3795 12.9502C58.1485 12.8245 57.7369 12.6119 57.4647 12.4778C57.1925 12.3437 56.7624 12.1417 56.5089 12.0289C56.2555 11.9162 55.8168 11.7317 55.5341 11.6191C55.2515 11.5065 54.8043 11.3392 54.5403 11.2473C54.2764 11.1554 53.8647 11.0189 53.6255 10.944C53.3863 10.869 52.9476 10.7416 52.6507 10.6608C52.3538 10.58 51.8341 10.4524 51.496 10.3772C51.1578 10.302 50.6044 10.1929 50.2662 10.1347C49.928 10.0765 49.3882 9.99578 49.0665 9.95539C48.7448 9.91499 48.2251 9.86034 47.9117 9.83395C47.5983 9.80756 46.9819 9.77472 46.5419 9.76096C46.102 9.74721 45.3732 9.74716 44.9223 9.76086C44.4714 9.77456 43.8461 9.80741 43.5326 9.83385C43.2192 9.8603 42.703 9.91464 42.3855 9.95463C42.0679 9.9946 41.5618 10.0686 41.2607 10.1191C40.9596 10.1695 40.4905 10.2583 40.2183 10.3163C39.9462 10.3743 39.4873 10.4809 39.1986 10.5532C38.9099 10.6254 38.4442 10.7518 38.1638 10.8339C37.8833 10.9161 37.4168 11.0643 37.1271 11.1633C36.8373 11.2623 36.3919 11.4232 36.1373 11.5209C35.8826 11.6185 35.4796 11.7817 35.2417 11.8836C35.0037 11.9854 34.5823 12.1751 34.3052 12.3053C34.0282 12.4354 33.5708 12.6642 33.2888 12.8137C33.0069 12.9632 32.5779 13.2013 32.3357 13.3428C32.0934 13.4843 31.6927 13.7278 31.4452 13.8839C31.1978 14.0401 30.7618 14.3307 30.4764 14.5299C30.1911 14.729 29.7533 15.0504 29.5037 15.244C29.2541 15.4377 28.8735 15.7431 28.6579 15.9228C28.4423 16.1025 28.0972 16.4016 27.891 16.5875C27.6848 16.7734 27.2584 17.1827 26.9435 17.497C26.6286 17.8113 26.201 18.2571 25.9933 18.4877C25.7856 18.7182 25.4919 19.0551 25.3406 19.2363C25.1894 19.4175 24.9031 19.7813 24.7045 20.0448C24.5059 20.3083 24.1453 20.821 23.9032 21.1841C23.6611 21.5473 23.272 22.163 23.0385 22.5525C22.805 22.9419 22.444 23.5678 22.2363 23.9434C22.0286 24.319 21.5654 25.2125 21.2069 25.9289C20.8484 26.6453 20.395 27.5819 20.1993 28.0101C20.0036 28.4383 19.7228 29.0644 19.5752 29.4016C19.4275 29.7387 19.1588 30.3653 18.978 30.794C18.7971 31.2227 18.4899 31.971 18.2952 32.4568C18.1005 32.9427 17.7919 33.731 17.6093 34.2086C17.4268 34.6862 17.1221 35.5025 16.9322 36.0226C16.7423 36.5427 16.4365 37.3983 16.2525 37.9241C16.0686 38.4498 15.7652 39.3381 15.5783 39.8981C15.3914 40.4581 15.1034 41.3407 14.9382 41.8595C14.773 42.3783 14.5301 43.1531 14.3984 43.5813C14.2667 44.0095 14.0507 44.7237 13.9185 45.1684C13.7863 45.613 13.5702 46.3542 13.4383 46.8153C13.3064 47.2764 13.0837 48.0715 12.9435 48.582C12.8032 49.0926 12.5719 49.955 12.4293 50.4985C12.2868 51.042 12.0713 51.8842 11.9504 52.37C11.8296 52.8559 11.6471 53.6038 11.545 54.032C11.4429 54.4602 11.2738 55.1878 11.1694 55.649C11.0649 56.1101 10.8983 56.8647 10.7991 57.3259C10.7 57.787 10.5439 58.5349 10.4524 58.9878C10.3608 59.4407 10.2176 60.1751 10.134 60.6198C10.0505 61.0645 9.92865 61.7382 9.86332 62.117C9.79799 62.4958 9.69124 63.1359 9.62609 63.5394C9.56095 63.9429 9.46008 64.6032 9.40195 65.0067C9.34381 65.4102 9.26287 66.0031 9.22208 66.3242C9.18128 66.6454 9.11395 67.2113 9.07246 67.5819C9.03097 67.9525 8.96993 68.5656 8.9368 68.9444C8.90368 69.3232 8.85582 69.9633 8.83044 70.3668C8.80507 70.7703 8.77557 71.5338 8.76489 72.0635C8.75274 72.6663 8.75873 73.2992 8.78091 73.7556C8.80041 74.1565 8.83608 74.6731 8.86018 74.9036C8.88429 75.134 8.92527 75.4574 8.95125 75.6221C8.97723 75.7867 9.03184 76.0794 9.07261 76.2723C9.11338 76.4653 9.19979 76.7887 9.26464 76.991C9.32948 77.1933 9.44349 77.4838 9.518 77.6365C9.5925 77.7891 9.70603 77.9913 9.77029 78.0856C9.83455 78.18 9.96646 78.3359 10.0634 78.4321C10.1604 78.5283 10.3277 78.6594 10.4352 78.7233C10.5427 78.7873 10.7157 78.8741 10.8196 78.9163C10.9236 78.9585 11.1516 79.0274 11.3264 79.0694C11.5011 79.1115 11.7803 79.1642 11.9467 79.1866C12.1667 79.2162 12.5114 79.2243 13.2091 79.216C13.9425 79.2074 14.2927 79.1898 14.6938 79.1416C14.9825 79.1068 15.4279 79.0459 15.6836 79.0061C15.9393 78.9663 16.3982 78.8865 16.7033 78.8287C17.0085 78.7708 17.5349 78.6613 17.8731 78.5852C18.2113 78.5091 18.7714 78.3751 19.1178 78.2874C19.4643 78.1996 20.0716 78.0378 20.4675 77.9276C20.8635 77.8175 21.5113 77.6287 21.9072 77.508C22.3032 77.3874 22.9645 77.1801 23.3769 77.0473C23.7893 76.9146 24.5182 76.6705 24.9966 76.5049C25.475 76.3393 26.2038 76.0813 26.6162 75.9315C27.0287 75.7818 27.7305 75.5215 28.1759 75.3532C28.6213 75.1849 29.4514 74.8622 30.0205 74.6362C30.5896 74.4102 31.4737 74.0522 31.9851 73.8407C32.4965 73.6292 33.3536 73.2677 33.8897 73.0375C34.4258 72.8073 35.2424 72.4507 35.7043 72.2451C36.1662 72.0394 36.9423 71.689 37.4289 71.4663L46.607 76.8648Z" fill="#A89FDF"/>
</svg>
