<svg fill="none" xmlns="http://www.w3.org/2000/svg" viewBox="1.15 1648.97 4330.85 272.49"> <path d="m14.652 1867.3s79.198 65.48 211 46.81c123.5-17.5 129-138 270-138 124 0 126.5 66 218 51 146.89-24.08 129-125.5 390.5-56.5 242 63.85 317-115 470-55 221 86.66 195.5 100.19 411 44.5 164.53-42.52 200.5 45.5 345.5 45.5 60.79-6.2 212-47.5 342-104 93.03-40.43 208.85 139.43 427.35 36.93 136.57-64.07 163.83 102.36 388.5 93.5 145.11-5.73 109.36-173.02 246-174.5 169.95-1.84 340.5 212.5 590.5 147.5" stroke="#B7C1F7" stroke-width="8"></path> <path d="m13.652 1914.3s128.83 15.15 331.55-194.88c97-100.5 264.5-8.5 349 130.5 64.413 105.96 211 42.5 350.5 0 142.39-43.38 239.5 107.5 333 40.5 203.44-145.78 303.5-255.5 456.5-195.5 220.99 86.66 144.5 166.69 360 111 164.53-42.52 237.5-121.5 421-70.5 118.59 32.96 376.8 165.62 663.14-33.38 226.37-157.32 264.85 114.81 427.66 105 256.53-15.45 513.67-182.92 614-72.5" stroke="#7B6DCD" stroke-width="8"></path> <path d="m5.1521 1751.3s85.5 127.07 334 77.57c125-24.9 133 171 406.5 45 115.5-53.21 209.85 14.17 297.35-105.33 87.94-120.1 267-49.5 427 16 231.63 94.82 330.65 96.83 482.65 22.83 213.43-103.91 317-108.65 508 0 167 95 271-58.5 449-116 156.73-50.63 211.84 96.48 356.85 104.96 59.47 3.48 164.79-88.14 227.5-95.29 143.5-16.35 190.5 95.29 398 0 143.58-65.94 198 15.5 436 72.5" stroke="#A89FDF" stroke-width="8"></path> </svg>