<?xml version="1.0" encoding="UTF-8"?>
<svg fill="none" viewBox="0 0 3342 2000" xmlns="http://www.w3.org/2000/svg">
<path d="m14.652 1448.3s79.198 65.48 211 46.81c123.5-17.5 129-138 270-138 124 0 126.5 66 218 51 146.89-24.08 129-125.5 390.5-56.5 242 63.85 317-115 470-55 221 86.66 195.5 100.19 411 44.5 164.53-42.52 200.5 45.5 345.5 45.5 60.79-6.2 212-47.5 342-104 93.03-40.43 204.5 52 351 74.5 65.35 6.56 193-69.31 293-17.31" stroke="#B7C1F7" stroke-width="8"/>
<path d="m13.652 1495.3s128.83 15.15 331.55-194.88c97-100.5 264.5-8.5 349 130.5 64.413 105.96 211 42.5 350.5 0 142.39-43.38 239.5 107.5 333 40.5 203.44-145.78 303.5-255.5 456.5-195.5 220.99 86.66 144.5 166.69 360 111 164.53-42.52 237.5-121.5 421-70.5 125 34.74 456.45 254.38 701.45-80.62" stroke="#7B6DCD" stroke-width="8"/>
<path d="m5.1521 1332.3s85.5 127.07 334 77.57c125-24.9 133 171 406.5 45 115.5-53.21 209.85 14.17 297.35-105.33 87.94-120.1 267-49.5 427 16 231.63 94.82 330.65 96.83 482.65 22.83 213.43-103.91 317-108.65 508 0 167 95 271-58.5 449-116 181.94-58.77 277.96 89.81 410 125.43" stroke="#A89FDF" stroke-width="8"/>
</svg>
